<svg width="122" height="306" viewBox="0 0 122 306" fill="none" xmlns="http://www.w3.org/2000/svg">
<path d="M120.764 209.08C116.81 192.997 94.4292 179.777 88.4555 176.493C88.4555 176.241 88.5396 176.072 88.5396 175.819L88.6237 175.314C91.9893 152.663 94.6817 126.644 94.6817 101.804C94.6817 79.7419 90.8955 60.9642 85.9313 45.8916H86.0155L85.9313 45.5548C76.592 17.683 62.9617 2.10512 61.5313 0.505228C61.5313 0.505228 61.5313 0.505228 61.5313 0.421024C61.5313 0.421024 61.5313 0.336819 61.4472 0.336819C61.4472 0.336819 61.4472 0.252614 61.363 0.252614L61.1106 0L60.7741 0.336819C60.7741 0.336819 60.7741 0.336819 60.6899 0.421024L60.6058 0.505228L60.5217 0.589433C58.4182 2.94717 44.7879 19.1145 35.701 47.3231L35.6168 47.6599H35.701C30.9892 62.3957 27.5396 80.4997 27.5396 101.719C27.5396 126.56 30.232 152.579 33.5134 175.23L33.5975 175.735C33.5975 175.904 33.6817 176.072 33.6817 176.241C28.1286 179.272 5.1589 192.66 1.12028 208.996C-4.43282 231.647 12.1423 278.212 18.3686 295.811C19.1258 297.916 19.7148 299.685 20.1355 300.948C20.6403 302.463 22.0706 303.474 23.6692 303.474C24.763 303.474 25.7727 303.053 26.4458 302.211C27.1189 301.369 27.4555 300.358 27.3713 299.264C25.8568 286.633 21.4817 244.446 29.9796 232.321C33.7658 226.932 37.8044 222.89 41.3382 220.027C43.9465 232.658 45.9658 240.489 46.0499 240.741L46.1341 241.078H75.8348L75.9189 240.741C76.003 240.489 77.9382 232.742 80.6306 220.195C84.1644 223.058 88.1189 227.016 91.821 232.405C100.319 244.531 95.9437 286.717 94.4293 299.348C94.261 300.443 94.5975 301.453 95.3548 302.295C96.0279 303.137 97.1217 303.558 98.1313 303.558C99.7299 303.558 101.16 302.548 101.665 301.032C102.086 299.769 102.675 298.001 103.432 295.895C109.742 278.297 126.318 231.731 120.764 209.08ZM98.2996 302.632C100.487 292.359 105.535 249.33 105.199 230.637C104.862 212.449 85.5106 204.533 83.8279 203.86C85.5106 194.934 87.0251 186.092 88.3713 177.335C94.5975 180.788 116.221 193.924 120.007 209.249C125.476 231.647 108.985 278.044 102.759 295.559C102.002 297.664 101.413 299.432 100.992 300.695C100.571 301.874 99.4775 302.632 98.2996 302.632ZM79.8734 219.606C78.6955 225.416 77.6017 230.216 76.7603 233.752C75.4982 235.605 72.6375 238.215 66.243 237.121C58.3341 235.773 57.9134 222.216 57.9134 219.606H79.8734C79.8734 219.522 79.8734 219.522 79.8734 219.606ZM46.8072 240.236C46.3865 238.636 44.5355 231.058 42.1796 219.522H43.5258L47.5644 240.236H46.8072ZM20.8927 300.695C20.472 299.432 19.7989 297.664 19.1258 295.559C12.8996 278.044 -3.59144 231.647 1.87752 209.249C5.66373 193.671 27.8761 180.451 33.7658 177.251C35.112 186.092 36.6265 195.018 38.2251 203.944L38.0568 203.86C38.0568 203.86 16.9382 211.691 16.6017 230.637C16.2651 249.33 21.3975 292.359 23.501 302.632C22.4072 302.632 21.3134 301.874 20.8927 300.695ZM57.072 6.31536C52.1079 13.8938 43.9465 28.377 40.1603 46.481C42.0113 47.0704 44.9561 47.8283 48.2375 48.4177C50.5092 28.7138 58.6706 6.98899 60.6058 1.7683C60.7741 1.59989 60.9424 1.34728 61.0265 1.26307C63.1299 3.70501 76.003 18.8619 84.9217 45.4706C84.9217 45.4706 84.9217 45.4706 84.8375 45.4706C84.2486 45.8074 83.5755 46.1442 82.9865 46.481C82.9023 46.1442 82.8182 45.8916 82.7341 45.5548C82.3134 44.2917 81.8086 43.0286 81.3879 41.7655C80.5465 39.3236 79.621 37.0501 78.7796 34.945C77.8541 32.8398 77.0127 30.9873 76.1713 29.3032C75.4141 27.6192 74.5727 26.2719 73.9837 25.093C72.6375 22.8195 71.7961 21.5564 71.7961 21.5564C71.7961 21.5564 71.9644 21.8932 72.301 22.4827C72.6375 23.0721 73.0582 24.0826 73.563 25.2614C74.0679 26.4403 74.6568 27.956 75.3299 29.6401C75.6665 30.4821 76.003 31.4084 76.3396 32.3346C76.6761 33.2609 77.0127 34.2713 77.4334 35.366C78.1065 37.4711 78.9479 39.7446 79.621 42.2708C79.9575 43.5339 80.3782 44.7127 80.7148 46.06C80.7989 46.481 80.9672 46.902 81.0513 47.3231C74.4886 50.2702 67.5051 51.7859 60.0168 51.7859C50.5092 51.7859 42.0955 49.344 36.6265 47.2389C36.6265 47.2389 36.6265 47.2389 36.5424 47.2389C43.021 27.0297 51.9396 13.1359 57.072 6.14695C57.1561 6.23115 57.072 6.31536 57.072 6.31536ZM36.4582 48.0809C37.3837 48.4177 38.3934 48.8388 39.5713 49.1756C38.5617 51.6175 32.9244 66.0165 31.4099 90.3517C29.8955 114.434 35.3644 164.368 36.4582 174.051H51.2665C47.312 169.42 36.8789 156.031 36.8789 144.074C36.8789 129.423 40.6651 122.686 40.6651 122.686C38.5617 117.887 36.2058 105.003 36.2058 85.2994C36.1217 67.2796 46.1341 53.47 47.7327 51.3649C51.5189 52.1227 55.6417 52.628 60.101 52.628C67.6734 52.628 74.741 51.1123 81.3879 48.1651C81.5561 48.8387 81.7244 49.4282 81.8927 50.1018C82.3134 51.4491 82.5658 52.7964 82.9024 54.2279C83.2389 55.6593 83.5755 57.0066 83.912 58.4381C84.501 61.3011 85.0899 64.2482 85.5948 67.1954C85.8472 68.6269 86.0996 70.1425 86.352 71.574C86.6044 73.0055 86.8568 74.5212 87.0251 75.9527C87.3617 78.8998 87.7824 81.7628 88.1189 84.5416C88.3713 87.3203 88.6237 90.0149 88.8761 92.541C89.0444 93.8041 89.0444 95.0672 89.1286 96.246C89.2127 97.4249 89.2968 98.6038 89.381 99.6984C89.5493 101.972 89.7175 103.993 89.7175 105.845C89.8017 107.698 89.8858 109.298 89.8858 110.561C90.0541 113.171 90.1382 114.687 90.1382 114.687C90.1382 114.687 90.2224 113.171 90.3906 110.561C90.4748 109.214 90.5589 107.614 90.643 105.845C90.643 104.919 90.8113 103.993 90.7272 102.898C90.7272 101.888 90.7272 100.793 90.7272 99.6984C90.7272 97.4249 90.7272 94.9829 90.643 92.3726C90.4748 89.7622 90.3906 87.0677 90.2224 84.2047C90.1382 82.7733 89.9699 81.3418 89.8017 79.9103C89.6334 78.4788 89.4651 76.9631 89.2968 75.5316C89.1286 74.016 88.8761 72.5845 88.6237 71.0688C88.3713 69.5531 88.203 68.1216 87.9506 66.6059C87.3617 63.6588 86.7727 60.7116 86.1837 57.7644C85.8472 56.333 85.4265 54.9015 85.0899 53.47C84.7534 52.0385 84.3327 50.6913 83.912 49.344C83.6596 48.5861 83.4913 47.8283 83.2389 47.0705C83.8279 46.7336 84.501 46.3968 85.0899 46.06C90.0541 61.0484 93.7561 79.6577 93.7561 101.551C93.7561 126.391 91.0637 152.411 87.6982 175.062H34.3548C30.9892 152.411 28.2968 126.391 28.2968 101.551C28.2968 80.7523 31.7465 62.7325 36.4582 48.0809ZM79.4527 218.68H78.6955H43.1051H42.3479H42.0113C42.0113 218.596 42.0113 218.596 42.0113 218.511C41.0017 213.796 40.0761 209.08 39.2348 204.365C37.4679 195.187 35.9534 185.924 34.6072 176.83C34.6072 176.662 34.523 176.493 34.523 176.409C34.523 176.325 34.523 176.241 34.523 176.241H34.9437H35.112H35.5327H36.7106L37.3837 180.198L37.6361 181.798L37.8886 183.398L41.3382 205.291L43.2734 217.417H43.6099H44.283H45.0403H57.7451L52.781 176.241H55.8099L60.7741 217.417H63.803L58.7548 176.241H86.5203H86.941H87.1092H87.7824C87.7824 176.325 87.7824 176.493 87.6982 176.577C87.6982 176.746 87.6141 176.914 87.6141 176.998C86.2679 186.008 84.6692 195.102 82.9865 204.281C82.061 209.08 81.1355 213.88 80.1258 218.764H79.4527V218.68Z" fill="#2B315E"/>
<path d="M70.3649 247.394C70.3649 247.394 77.769 254.214 79.1152 257.077C76.0021 255.309 72.8049 255.393 72.8049 255.393C77.3483 258.845 77.6849 268.866 77.6849 268.866C75.329 266.761 69.2711 265.919 69.2711 265.919C71.2062 275.097 64.98 282.844 64.4752 283.433C64.3069 282.002 64.0545 280.065 62.9607 278.886C61.6145 277.37 59.5952 276.444 57.9124 275.181C56.0614 273.834 54.0421 272.234 53.0324 270.466C52.1069 268.782 51.518 267.013 51.0973 265.245C50.4242 262.382 50.2559 259.435 50.4242 256.488C50.4242 256.151 50.4242 255.814 50.5083 255.393C46.638 257.666 42.5152 261.119 42.5152 261.119C44.2821 252.698 51.9386 247.309 51.9386 247.309C51.9386 247.309 31.998 253.456 37.8035 278.297C37.8035 278.297 39.4021 271.055 44.3662 265.666C44.3662 265.666 40.6642 277.876 49.078 283.265C57.4918 288.57 57.2393 288.57 58.4173 296.064C59.5111 303.474 63.2973 306 63.2973 306C63.2973 306 61.7828 298.169 67.9249 292.696C74.1511 287.222 76.3386 277.455 73.6462 271.392C73.6462 271.392 78.7786 273.16 79.8724 277.791C79.8724 277.791 83.6586 267.855 78.5262 259.687C78.5262 259.687 82.9855 260.361 85.4255 262.719C85.4255 262.719 84.0793 253.456 70.3649 247.394ZM60.1 291.517C60.1 291.685 60.1 291.769 60.1 291.769C60.1 291.769 60.1 291.685 60.0159 291.517C59.9318 291.348 59.8476 291.096 59.7635 290.843C59.5111 290.254 59.1745 289.496 58.5014 288.654C58.1649 288.233 57.8283 287.812 57.4076 287.391C56.9869 286.97 56.4821 286.549 55.9773 286.044C55.4724 285.622 54.7993 285.201 54.2104 284.78C53.8738 284.612 53.6214 284.359 53.2849 284.191C52.9483 284.023 52.6118 283.77 52.2752 283.602C51.6021 283.181 50.929 282.76 50.2559 282.338C49.5828 281.917 48.9938 281.412 48.4049 280.907C48.1524 280.654 47.9 280.402 47.6476 280.065C47.5635 279.897 47.4793 279.812 47.3952 279.644C47.3111 279.476 47.2269 279.391 47.1428 279.223C46.8062 278.633 46.5538 278.128 46.3855 277.623C45.9649 276.613 45.8807 275.771 45.7966 275.097C45.7966 274.507 45.7966 274.171 45.7966 274.171C45.7966 274.171 45.8807 274.507 46.1331 275.097C46.3855 275.686 46.7221 276.444 47.3111 277.37C47.5635 277.791 47.9 278.297 48.3207 278.718C48.4049 278.802 48.489 278.97 48.5731 279.054C48.6573 279.139 48.8255 279.307 48.9097 279.391C49.1621 279.56 49.3304 279.812 49.5828 280.065C50.0876 280.486 50.6766 280.907 51.3497 281.244C52.0228 281.665 52.6959 282.002 53.369 282.423C53.7055 282.591 54.0421 282.844 54.3786 283.096C54.7152 283.265 55.0518 283.517 55.3883 283.77C56.0614 284.191 56.6504 284.696 57.1552 285.201C58.249 286.212 59.0062 287.307 59.5111 288.317C60.0159 289.327 60.1842 290.17 60.1842 290.759C60.1 291.096 60.1 291.348 60.1 291.517Z" fill="#2B315E"/>
<path d="M60.1 104.751C72.0476 104.751 81.8076 94.9829 81.8076 83.0259C81.8076 71.0688 72.0476 61.3011 60.1 61.3011C48.1524 61.3011 38.3924 71.0688 38.3924 83.0259C38.3083 94.9829 48.0683 104.751 60.1 104.751ZM60.1 62.0589C71.6269 62.0589 80.9662 71.4056 80.9662 82.9417C80.9662 94.4777 71.6269 103.824 60.1 103.824C48.5731 103.824 39.2338 94.4777 39.2338 82.9417C39.1497 71.4056 48.5731 62.0589 60.1 62.0589Z" fill="#2B315E"/>
<path d="M60.1 99.6142C69.2711 99.6142 76.7594 92.12 76.7594 82.9416C76.7594 73.7633 69.2711 66.2691 60.1 66.2691C50.929 66.2691 43.4407 73.7633 43.4407 82.9416C43.4407 92.2042 50.8449 99.6142 60.1 99.6142ZM50.0876 72.3318C50.2559 72.0792 50.5083 71.7424 50.929 71.3214C51.3497 70.9004 51.8545 70.4793 52.4435 69.9741C53.1166 69.4689 53.8738 69.0479 54.7152 68.6268C55.6407 68.2058 56.6504 67.869 57.7442 67.6164C58.3331 67.5322 58.9221 67.448 59.5111 67.3638C60.1842 67.3638 60.7731 67.3638 61.3621 67.3638C61.9511 67.448 62.6242 67.448 63.2973 67.6164C63.6338 67.7006 63.9704 67.7848 64.2228 67.869C64.5594 67.9532 64.8959 68.0374 65.1483 68.2058C65.8214 68.3742 66.4104 68.711 66.9994 68.9637C67.5883 69.3005 68.1773 69.6373 68.7663 70.0583C69.86 70.8162 70.8697 71.8266 71.7111 72.8371C72.5525 73.9317 73.2256 75.0264 73.7304 76.2053C73.8145 76.4579 73.9828 76.7947 74.0669 77.0473C74.1511 77.3841 74.2352 77.6367 74.3194 77.8894C74.4876 78.4788 74.5718 79.0682 74.74 79.6577C74.8242 80.2471 74.8242 80.8365 74.9083 81.3418C74.9083 81.847 74.9083 82.3522 74.8242 82.7732C74.74 83.7837 74.5718 84.6257 74.3194 85.4678C74.0669 86.2256 73.8145 86.8151 73.5621 87.3203C73.0573 88.3307 72.7207 88.836 72.7207 88.836C72.7207 88.836 72.7207 88.6676 72.8049 88.4149C72.889 88.1623 72.889 87.7413 72.9731 87.1519C73.0573 86.6467 73.0573 85.973 73.1414 85.2152C73.1414 84.5415 73.1414 83.6153 72.9731 82.8574C72.889 82.4364 72.8049 81.9312 72.7207 81.426C72.5525 81.0049 72.5525 80.5839 72.3842 80.0787C72.2159 79.6577 72.1318 79.1524 71.8794 78.6472C71.7952 78.3946 71.7111 78.142 71.5428 77.9736C71.4587 77.7209 71.2904 77.5525 71.2062 77.2999C70.7014 76.3737 70.0283 75.5316 69.3552 74.6896C68.9345 74.2686 68.598 73.8475 68.1773 73.5107C67.7566 73.0897 67.3359 72.8371 66.9152 72.5003C65.9897 71.8266 65.0642 71.3214 64.0545 70.9004C63.0449 70.4793 62.0352 70.2267 60.9414 70.0583C60.4366 69.9741 59.8476 69.9741 59.4269 69.8899C58.838 69.8899 58.4173 69.8899 57.9125 69.8899C56.9028 69.8899 55.9773 70.0583 55.1359 70.2267C53.4531 70.6478 52.0228 71.2372 51.0973 71.7424C50.5925 71.995 50.2559 72.1634 50.0035 72.3318C49.7511 72.5003 49.5828 72.5845 49.5828 72.5845C49.5828 72.5845 49.9194 72.5845 50.0876 72.3318Z" fill="#2B315E"/>
<path d="M60.1 64.585C60.4253 64.585 60.689 64.3211 60.689 63.9956C60.689 63.6701 60.4253 63.4062 60.1 63.4062C59.7747 63.4062 59.511 63.6701 59.511 63.9956C59.511 64.3211 59.7747 64.585 60.1 64.585Z" fill="#2B315E"/>
<path d="M79.031 83.5311C79.3676 83.5311 79.62 83.2785 79.62 82.9417C79.62 82.6048 79.3676 82.3522 79.031 82.3522C78.6945 82.3522 78.4421 82.6048 78.4421 82.9417C78.4421 83.2785 78.6945 83.5311 79.031 83.5311Z" fill="#2B315E"/>
<path d="M60.1 102.561C60.4253 102.561 60.689 102.297 60.689 101.972C60.689 101.646 60.4253 101.383 60.1 101.383C59.7747 101.383 59.511 101.646 59.511 101.972C59.511 102.297 59.7747 102.561 60.1 102.561Z" fill="#2B315E"/>
<path d="M41.0849 82.3522C40.7483 82.3522 40.4959 82.6048 40.4959 82.9417C40.4959 83.2785 40.7483 83.5311 41.0849 83.5311C41.4214 83.5311 41.6738 83.2785 41.6738 82.9417C41.6738 82.6048 41.4214 82.3522 41.0849 82.3522Z" fill="#2B315E"/>
<path d="M66.7469 65.8481C67.0835 65.9323 67.42 65.8481 67.5042 65.5113C67.5883 65.1745 67.5042 64.8377 67.1676 64.7535C66.8311 64.6692 66.4945 64.7535 66.4104 65.0903C66.2421 65.3429 66.4104 65.6797 66.7469 65.8481Z" fill="#2B315E"/>
<path d="M77.18 89.5938C77.0959 89.9307 77.18 90.2675 77.5166 90.3517C77.8531 90.4359 78.1897 90.3517 78.2738 90.0149C78.3579 89.678 78.2738 89.3412 77.9372 89.257C77.6848 89.1728 77.3483 89.3412 77.18 89.5938Z" fill="#2B315E"/>
<path d="M53.4531 100.119C53.1166 100.035 52.78 100.119 52.6959 100.456C52.6117 100.793 52.6959 101.13 53.0324 101.214C53.369 101.298 53.7055 101.214 53.7897 100.877C53.8738 100.54 53.7897 100.204 53.4531 100.119Z" fill="#2B315E"/>
<path d="M42.9359 76.2895C43.02 75.9527 42.9359 75.6159 42.5994 75.5317C42.2628 75.4474 41.9263 75.5317 41.8421 75.8685C41.758 76.2053 41.8421 76.5421 42.1787 76.6263C42.5152 76.7947 42.8518 76.6263 42.9359 76.2895Z" fill="#2B315E"/>
<path d="M73.3096 69.3847C73.5621 69.1321 73.4779 68.7953 73.3096 68.5427C73.1414 68.2901 72.7207 68.3743 72.4683 68.5427C72.2159 68.7953 72.3 69.1321 72.4683 69.3847C72.7207 69.6373 73.0572 69.5531 73.3096 69.3847Z" fill="#2B315E"/>
<path d="M73.6462 95.404C73.3938 95.6566 73.478 95.9934 73.6462 96.246C73.8987 96.4986 74.2352 96.4144 74.4876 96.246C74.74 95.9934 74.6559 95.6566 74.4876 95.404C74.2352 95.1514 73.8987 95.1514 73.6462 95.404Z" fill="#2B315E"/>
<path d="M46.8904 96.5828C46.638 96.8354 46.7221 97.1723 46.8904 97.4249C47.1428 97.6775 47.4794 97.5933 47.7318 97.4249C47.9842 97.1723 47.9 96.8354 47.7318 96.5828C47.4794 96.3302 47.0587 96.3302 46.8904 96.5828Z" fill="#2B315E"/>
<path d="M46.5538 70.5636C46.8062 70.311 46.7221 69.9742 46.5538 69.7215C46.3855 69.4689 45.9648 69.5531 45.7124 69.7215C45.46 69.9742 45.5441 70.311 45.7124 70.5636C45.9648 70.8162 46.3014 70.8162 46.5538 70.5636Z" fill="#2B315E"/>
<path d="M77.5166 75.5316C77.769 75.3632 77.9373 75.0264 77.769 74.7738C77.6007 74.5212 77.2642 74.3528 77.0117 74.5212C76.7593 74.6896 76.5911 75.0264 76.7593 75.279C76.9276 75.5317 77.2641 75.6159 77.5166 75.5316Z" fill="#2B315E"/>
<path d="M67.8407 99.6142C67.5883 99.7826 67.42 100.119 67.5883 100.372C67.7566 100.625 68.0931 100.793 68.3455 100.625C68.598 100.456 68.7662 100.119 68.598 99.8668C68.4297 99.6142 68.0931 99.53 67.8407 99.6142Z" fill="#2B315E"/>
<path d="M42.5993 90.4359C42.3469 90.6043 42.1786 90.9411 42.3469 91.1937C42.5152 91.4464 42.8517 91.6148 43.1041 91.4463C43.3566 91.2779 43.5248 90.9411 43.3566 90.6885C43.2724 90.4359 42.9359 90.2675 42.5993 90.4359Z" fill="#2B315E"/>
<path d="M52.3593 66.2691C52.6118 66.1007 52.78 65.7639 52.6118 65.5113C52.4435 65.2587 52.1069 65.0903 51.8545 65.2587C51.6021 65.4271 51.4338 65.7639 51.6021 66.0165C51.6862 66.2691 52.1069 66.4375 52.3593 66.2691Z" fill="#2B315E"/>
<path d="M81.8076 139.864C81.8076 127.907 72.0476 118.139 60.1 118.139C48.1525 118.139 38.3925 127.907 38.3925 139.864C38.3925 151.821 48.1525 161.589 60.1 161.589C72.0476 161.589 81.8076 151.821 81.8076 139.864ZM39.1497 139.864C39.1497 128.328 48.489 118.981 60.0159 118.981C71.5428 118.981 80.8821 128.328 80.8821 139.864C80.8821 151.4 71.5428 160.747 60.0159 160.747C48.5731 160.747 39.1497 151.4 39.1497 139.864Z" fill="#2B315E"/>
<path d="M76.7594 139.864C76.7594 130.686 69.2711 123.192 60.1 123.192C50.929 123.192 43.4407 130.686 43.4407 139.864C43.4407 149.042 50.929 156.537 60.1 156.537C69.2711 156.537 76.7594 149.042 76.7594 139.864ZM58.0807 126.897C57.0711 126.897 56.1456 127.065 55.3042 127.233C53.6214 127.654 52.1911 128.244 51.2656 128.749C50.7607 129.002 50.4242 129.17 50.1718 129.338C49.9194 129.507 49.7511 129.591 49.7511 129.591C49.7511 129.591 49.8352 129.423 50.0035 129.254C50.1718 129.002 50.4242 128.665 50.8449 128.244C51.2656 127.823 51.7704 127.402 52.3594 126.897C53.0325 126.391 53.7897 125.97 54.6311 125.549C55.5566 125.128 56.5662 124.791 57.66 124.539C58.249 124.455 58.838 124.37 59.4269 124.286C60.1 124.286 60.689 124.286 61.278 124.286C61.8669 124.37 62.54 124.37 63.2131 124.539C63.5497 124.623 63.8863 124.707 64.1387 124.791C64.4752 124.876 64.8118 124.96 65.0642 125.128C65.7373 125.297 66.3262 125.633 66.9152 125.886C67.5042 126.223 68.0931 126.56 68.6821 126.981C69.7759 127.739 70.7856 128.749 71.6269 129.759C72.4683 130.854 73.1414 131.949 73.6462 133.128C73.7304 133.38 73.8987 133.717 73.9828 133.97C74.0669 134.307 74.1511 134.559 74.2352 134.812C74.4035 135.401 74.4876 135.991 74.6559 136.58C74.74 137.17 74.74 137.759 74.8242 138.264C74.8242 138.769 74.8242 139.275 74.74 139.696C74.6559 140.706 74.4876 141.548 74.2352 142.39C73.9828 143.148 73.7304 143.737 73.478 144.243C72.9731 145.253 72.6366 145.758 72.6366 145.758C72.6366 145.758 72.6366 145.59 72.7207 145.337C72.8049 145.085 72.8049 144.664 72.889 144.074C72.9731 143.569 72.9731 142.895 73.0573 142.138C73.0573 141.464 73.0573 140.538 72.889 139.78C72.8049 139.359 72.7207 138.854 72.6366 138.348C72.4683 137.927 72.4683 137.506 72.3 137.001C72.1318 136.58 72.0476 136.075 71.7952 135.57C71.7111 135.317 71.6269 135.064 71.4587 134.896C71.3745 134.643 71.2062 134.475 71.1221 134.222C70.6173 133.296 69.9442 132.454 69.2711 131.612C68.8504 131.191 68.5138 130.77 68.0931 130.433C67.6725 130.012 67.2518 129.759 66.8311 129.423C65.9056 128.749 64.98 128.244 63.9704 127.823C62.9607 127.402 61.9511 127.149 60.8573 126.981C60.3525 126.897 59.7635 126.897 59.3428 126.812C59.0904 126.897 58.5856 126.897 58.0807 126.897Z" fill="#2B315E"/>
<path d="M60.1 121.507C60.4253 121.507 60.689 121.244 60.689 120.918C60.689 120.592 60.4253 120.329 60.1 120.329C59.7747 120.329 59.511 120.592 59.511 120.918C59.511 121.244 59.7747 121.507 60.1 121.507Z" fill="#2B315E"/>
<path d="M79.031 140.453C79.3676 140.453 79.62 140.201 79.62 139.864C79.62 139.527 79.3676 139.275 79.031 139.275C78.6945 139.275 78.4421 139.527 78.4421 139.864C78.4421 140.201 78.6945 140.453 79.031 140.453Z" fill="#2B315E"/>
<path d="M60.689 158.81C60.689 158.473 60.4366 158.221 60.1 158.221C59.7635 158.221 59.511 158.473 59.511 158.81C59.511 159.147 59.7635 159.4 60.1 159.4C60.4366 159.4 60.689 159.147 60.689 158.81Z" fill="#2B315E"/>
<path d="M41.0849 139.275C40.7483 139.275 40.4959 139.527 40.4959 139.864C40.4959 140.201 40.7483 140.453 41.0849 140.453C41.4214 140.453 41.6738 140.201 41.6738 139.864C41.6738 139.527 41.4214 139.275 41.0849 139.275Z" fill="#2B315E"/>
<path d="M66.7469 122.686C67.0835 122.771 67.42 122.686 67.5042 122.349C67.5883 122.013 67.5042 121.676 67.1676 121.592C66.8311 121.507 66.4945 121.592 66.4104 121.928C66.2421 122.265 66.4104 122.602 66.7469 122.686Z" fill="#2B315E"/>
<path d="M77.18 146.516C77.0959 146.853 77.18 147.19 77.5166 147.274C77.8531 147.358 78.1897 147.274 78.2738 146.937C78.3579 146.6 78.2738 146.264 77.9372 146.179C77.6848 146.011 77.3483 146.179 77.18 146.516Z" fill="#2B315E"/>
<path d="M53.4531 157.042C53.1166 156.958 52.78 157.042 52.6959 157.379C52.6117 157.715 52.6959 158.052 53.0324 158.137C53.369 158.221 53.7055 158.136 53.7897 157.8C53.8738 157.463 53.7897 157.126 53.4531 157.042Z" fill="#2B315E"/>
<path d="M42.9359 133.212C43.02 132.875 42.9359 132.538 42.5994 132.454C42.2628 132.37 41.9263 132.454 41.8421 132.791C41.758 133.128 41.8421 133.464 42.1787 133.549C42.5152 133.633 42.8518 133.549 42.9359 133.212Z" fill="#2B315E"/>
<path d="M73.3096 126.223C73.5621 125.97 73.4779 125.633 73.3096 125.381C73.1414 125.128 72.7207 125.212 72.4683 125.381C72.2159 125.633 72.3 125.97 72.4683 126.223C72.7207 126.475 73.0572 126.475 73.3096 126.223Z" fill="#2B315E"/>
<path d="M73.6462 152.242C73.3938 152.495 73.478 152.832 73.6462 153.084C73.8987 153.337 74.2352 153.253 74.4876 153.084C74.74 152.832 74.6559 152.495 74.4876 152.242C74.2352 151.99 73.8987 151.99 73.6462 152.242Z" fill="#2B315E"/>
<path d="M46.8904 153.421C46.638 153.674 46.7221 154.01 46.8904 154.263C47.1428 154.516 47.4794 154.431 47.7318 154.263C47.9842 154.01 47.9 153.674 47.7318 153.421C47.4794 153.168 47.0587 153.253 46.8904 153.421Z" fill="#2B315E"/>
<path d="M46.5538 127.486C46.8062 127.233 46.7221 126.897 46.5538 126.644C46.3014 126.391 45.9648 126.476 45.7124 126.644C45.46 126.897 45.5441 127.233 45.7124 127.486C45.9648 127.739 46.3014 127.654 46.5538 127.486Z" fill="#2B315E"/>
<path d="M77.5166 132.37C77.769 132.201 77.9373 131.865 77.769 131.612C77.6007 131.359 77.2642 131.191 77.0117 131.359C76.7593 131.528 76.5911 131.865 76.7593 132.117C76.9276 132.454 77.2641 132.538 77.5166 132.37Z" fill="#2B315E"/>
<path d="M67.8407 156.537C67.5883 156.705 67.42 157.042 67.5883 157.294C67.7566 157.547 68.0931 157.715 68.3455 157.547C68.598 157.379 68.7662 157.042 68.598 156.789C68.4297 156.537 68.0931 156.368 67.8407 156.537Z" fill="#2B315E"/>
<path d="M42.5993 147.274C42.3469 147.442 42.1786 147.779 42.3469 148.032C42.5152 148.285 42.8517 148.453 43.1041 148.285C43.3566 148.116 43.5248 147.779 43.3566 147.527C43.2724 147.274 42.9359 147.19 42.5993 147.274Z" fill="#2B315E"/>
<path d="M52.3593 123.192C52.6118 123.023 52.78 122.686 52.6118 122.434C52.4435 122.181 52.1069 122.013 51.8545 122.181C51.6021 122.349 51.4338 122.686 51.6021 122.939C51.6862 123.192 52.1069 123.276 52.3593 123.192Z" fill="#2B315E"/>
<path d="M60.689 56.0804C61.0256 56.0804 61.278 55.8277 61.278 55.4909C61.278 55.1541 61.0256 54.9015 60.689 54.9015C60.3524 54.9015 60.1 55.1541 60.1 55.4909C60.1 55.8277 60.3524 56.0804 60.689 56.0804Z" fill="#2B315E"/>
<path d="M78.0214 53.9752C78.358 53.9752 78.6104 53.7226 78.6104 53.3858C78.6104 53.049 78.358 52.7964 78.0214 52.7964C77.6849 52.7964 77.4324 53.049 77.4324 53.3858C77.4324 53.7226 77.6849 53.9752 78.0214 53.9752Z" fill="#2B315E"/>
<path d="M72.4683 55.7435C72.8048 55.7435 73.0573 55.4909 73.0573 55.1541C73.0573 54.8173 72.8048 54.5647 72.4683 54.5647C72.1317 54.5647 71.8793 54.8173 71.8793 55.1541C71.8793 55.4909 72.1317 55.7435 72.4683 55.7435Z" fill="#2B315E"/>
<path d="M66.4945 55.912C66.831 55.912 67.0835 55.6593 67.0835 55.3225C67.0835 54.9857 66.831 54.7331 66.4945 54.7331C66.1579 54.7331 65.9055 54.9857 65.9055 55.3225C65.9055 55.6593 66.2421 55.912 66.4945 55.912Z" fill="#2B315E"/>
<path d="M48.5731 55.3225C48.8984 55.3225 49.1621 55.0586 49.1621 54.7331C49.1621 54.4075 48.8984 54.1436 48.5731 54.1436C48.2478 54.1436 47.9841 54.4075 47.9841 54.7331C47.9841 55.0586 48.2478 55.3225 48.5731 55.3225Z" fill="#2B315E"/>
<path d="M55.0517 55.912C55.3883 55.912 55.6407 55.6593 55.6407 55.3225C55.6407 54.9857 55.3883 54.7331 55.0517 54.7331C54.7152 54.7331 54.4628 54.9857 54.4628 55.3225C54.4628 55.6593 54.7152 55.912 55.0517 55.912Z" fill="#2B315E"/>
<path d="M37.4669 52.8806C37.7922 52.8806 38.0559 52.6167 38.0559 52.2912C38.0559 51.9656 37.7922 51.7017 37.4669 51.7017C37.1416 51.7017 36.8779 51.9656 36.8779 52.2912C36.8779 52.6167 37.1416 52.8806 37.4669 52.8806Z" fill="#2B315E"/>
</svg>
