<svg width="309" height="261" viewBox="0 0 309 261" fill="none" xmlns="http://www.w3.org/2000/svg">
<path d="M309 110.117L205.156 80.2916L170.372 17.6086C169.95 16.9345 160.494 0 154.416 0C148.084 0 138.797 16.9345 138.459 17.6086L103.591 80.3759L0 110.117V126.546L72.7754 135.898L67.3721 145.587H112.371V160.078H196.375V145.587H241.459L236.056 135.898L309 126.546V110.117ZM308.156 125.787L235.634 135.055L207.266 83.9987L239.179 129.073L250.239 127.978L265.267 98.3214L268.898 99.3325L254.63 127.557L260.539 126.967L273.372 100.68L280.802 102.787L269.911 126.04L303.175 122.839L308.071 111.296V125.787H308.156ZM196.375 144.744H112.962L119.041 132.106L119.21 131.601H222.463H222.97H223.476H232.594L234.62 135.224L234.874 135.645L235.127 136.066L240.024 144.828H196.375V144.744ZM195.531 159.235H192.661V145.587H195.531V159.235ZM0.844262 111.465L5.74098 123.007L39.0049 126.209L28.1139 102.955L35.5434 100.849L48.3762 127.135L54.2861 127.725L40.018 99.501L43.6484 98.49L58.7607 128.062L69.8205 129.157L100.889 85.1782L73.1975 135.055L0.844262 125.787V111.465ZM104.604 80.2074L135.504 24.5172C136.095 24.7699 137.446 25.2754 139.388 25.8652C139.134 26.3707 138.628 27.2132 137.868 28.5612C137.784 28.3927 137.615 28.2242 137.361 28.2242C137.024 28.2242 136.77 28.477 136.77 28.814C136.77 29.151 137.024 29.4038 137.361 29.4038H137.446C132.887 37.4919 121.574 57.3752 108.319 80.7971C108.234 80.9657 108.15 81.0499 108.066 81.2184C107.981 81.3869 107.897 81.4712 107.812 81.6397C99.2008 96.8892 89.8295 113.487 80.9648 129.242H86.8746H87.3811H87.8877H120.223L131.536 100.849C121.236 79.1121 136.517 61.8406 136.517 61.8406L145.044 27.2975C147.915 27.803 151.207 28.2242 154.838 28.2242C159.566 28.2242 164.8 27.5502 170.288 25.7809C171.639 28.477 173.411 32.0156 175.522 36.2281C176.704 38.5872 178.055 41.199 179.49 43.9793C180.925 46.6753 182.445 49.6241 183.965 52.5729C185.569 55.5217 187.173 58.639 188.861 61.6721C190.55 64.7894 192.239 67.9067 193.927 71.1082C195.7 74.2255 197.389 77.3428 199.077 80.4601C199.246 80.7129 199.33 80.9657 199.499 81.2184C199.584 81.3869 199.668 81.4712 199.668 81.5554C199.752 81.7239 199.837 81.8082 199.921 81.9767C201.357 84.5042 202.792 87.0318 204.143 89.475C207.435 95.2884 210.559 100.765 213.345 105.399C218.748 114.666 222.632 120.732 222.632 120.732C222.632 120.732 219.593 114.245 214.696 104.64C212.248 99.838 209.377 94.2774 206.169 88.3798C204.987 86.105 203.72 83.7459 202.454 81.3869C202.37 81.2184 202.285 81.1342 202.285 80.9656C202.201 80.8814 202.116 80.7129 202.116 80.6286C201.863 80.1231 201.61 79.7019 201.357 79.2806C199.668 76.1633 197.98 73.046 196.291 69.8445C194.518 66.7272 192.83 63.6099 191.141 60.4925C189.452 57.3752 187.68 54.4264 186.075 51.4776C184.471 48.5288 182.783 45.7485 181.263 43.0525C179.743 40.3564 178.224 37.8289 176.873 35.5541C175.438 33.0266 174.087 30.836 172.905 28.814C172.989 28.7297 173.074 28.5612 173.074 28.477C173.074 28.14 172.82 27.8872 172.483 27.8872C172.398 27.8872 172.398 27.8872 172.398 27.8872C171.892 27.0447 171.47 26.2865 171.048 25.6124C171.807 25.3597 172.652 25.0227 173.411 24.6857L204.311 80.3759L204.565 80.7971L204.818 81.2184L232.425 130.927H223.223H222.716H222.041H86.959H86.4525H85.9459H76.5746L104.182 81.2184L104.435 80.7971L104.604 80.2074ZM153.571 0.926766C151.63 2.44329 146.311 7.66688 140.316 23.5904C141.752 24.0117 143.525 24.4329 145.551 24.7699C148.421 11.8795 152.98 2.86455 154.162 0.842515C154.247 0.842515 154.331 0.842515 154.416 0.842515C159.988 0.842515 169.528 17.8613 169.697 18.0298L172.905 23.7589C172.061 24.0959 171.301 24.3487 170.457 24.6857C168.684 21.7369 167.586 19.9676 167.586 19.9676C167.586 19.9676 168.43 21.7369 169.95 24.8542C153.487 30.3305 138.628 24.8542 136.011 23.7589L139.219 18.0298C139.219 17.8613 147.661 2.35904 153.571 0.926766ZM73.873 135.561L74.1262 135.139L76.1525 131.517H79.6139L76.3213 135.392L75.9836 135.813L75.6459 136.235L69.4828 143.48L73.6197 135.982L73.873 135.561ZM113.216 145.587H119.125V159.235H113.216V145.587ZM126.639 145.587H129.51V159.235H126.639V145.587ZM133.731 145.587H188.524V159.235H133.731V145.587Z" fill="#2B315E"/>
<path d="M167.839 172.968C167.839 172.968 178.561 183.078 180.588 187.375C176.113 184.763 171.385 184.932 171.385 184.932C178.055 190.071 178.477 204.984 178.477 204.984C175.016 201.782 166.32 200.603 166.32 200.603C169.106 214.167 160.072 225.71 159.397 226.636C159.143 224.446 158.806 221.666 157.202 219.896C155.175 217.706 152.389 216.274 149.941 214.42C147.324 212.482 144.369 210.039 142.934 207.343C141.583 204.9 140.739 202.204 140.148 199.592C139.219 195.295 138.966 190.914 139.219 186.617C139.219 186.111 139.303 185.522 139.303 185.016C133.731 188.386 127.737 193.61 127.737 193.61C130.27 181.056 141.414 173.053 141.414 173.053C141.414 173.053 112.54 181.983 120.898 218.97C120.898 218.97 123.262 208.185 130.439 200.266C130.439 200.266 125.12 218.464 137.277 226.384C149.434 234.303 149.181 234.303 150.785 245.34C152.389 256.377 157.877 260.084 157.877 260.084C157.877 260.084 155.598 248.458 164.631 240.285C173.58 232.113 176.789 217.622 172.989 208.607C172.989 208.607 180.334 211.218 181.939 218.127C181.939 218.127 187.426 203.383 179.997 191.251C179.997 191.251 186.413 192.346 189.959 195.716C189.621 195.632 187.764 181.899 167.839 172.968ZM152.896 238.516C152.896 238.769 152.896 238.853 152.896 238.853C152.896 238.853 152.896 238.769 152.811 238.516C152.727 238.263 152.643 237.926 152.474 237.505C152.136 236.662 151.545 235.483 150.701 234.303C150.279 233.714 149.688 233.04 149.097 232.366C148.506 231.692 147.746 231.102 146.986 230.428C146.226 229.754 145.298 229.164 144.453 228.574C144.031 228.237 143.525 227.984 143.102 227.647C142.68 227.395 142.174 227.058 141.667 226.805C140.739 226.215 139.725 225.625 138.712 224.951C137.699 224.277 136.855 223.519 136.011 222.761C135.589 222.34 135.251 222.003 134.913 221.497C134.744 221.244 134.66 221.076 134.491 220.907C134.322 220.655 134.238 220.486 134.069 220.233C133.562 219.391 133.225 218.633 132.971 217.874C132.38 216.358 132.211 215.094 132.127 214.167C132.043 213.24 132.127 212.735 132.127 212.735C132.127 212.735 132.296 213.24 132.634 214.083C132.971 214.925 133.478 216.105 134.322 217.369C134.744 218.043 135.166 218.717 135.757 219.391C135.926 219.559 136.011 219.728 136.18 219.896C136.348 220.065 136.517 220.318 136.686 220.402C137.024 220.739 137.277 221.076 137.699 221.329C138.459 222.003 139.303 222.508 140.232 223.098C141.161 223.688 142.174 224.277 143.187 224.867C143.693 225.204 144.2 225.457 144.707 225.794C145.213 226.131 145.635 226.468 146.142 226.805C147.071 227.479 147.915 228.237 148.759 228.995C150.279 230.512 151.461 232.113 152.221 233.629C152.896 235.062 153.149 236.41 153.234 237.336C152.98 237.926 152.896 238.263 152.896 238.516Z" fill="#2B315E"/>
<path d="M154.416 103.461C166.066 103.461 175.522 94.0246 175.522 82.3979C175.522 70.7712 166.066 61.3351 154.416 61.3351C142.765 61.3351 133.309 70.7712 133.309 82.3979C133.309 94.0246 142.765 103.461 154.416 103.461ZM154.416 62.1776C165.56 62.1776 174.678 71.2767 174.678 82.3979C174.678 93.5191 165.56 102.618 154.416 102.618C143.271 102.618 134.153 93.5191 134.153 82.3979C134.153 71.2767 143.187 62.1776 154.416 62.1776Z" fill="#2B315E"/>
<path d="M154.416 98.5742C163.365 98.5742 170.625 91.3286 170.625 82.3979C170.625 73.4673 163.365 66.2216 154.416 66.2216C145.466 66.2216 138.206 73.4673 138.206 82.3979C138.206 91.3286 145.466 98.5742 154.416 98.5742ZM144.707 72.1193C144.875 71.8665 145.129 71.5295 145.551 71.1925C145.889 70.7712 146.395 70.35 147.07 69.9287C147.661 69.5075 148.421 69.0019 149.35 68.6649C150.194 68.2437 151.207 67.9067 152.305 67.7382C152.811 67.6539 153.487 67.5697 153.993 67.4854C154.584 67.4854 155.175 67.4854 155.851 67.4854C156.442 67.5697 157.117 67.5697 157.708 67.7382C158.046 67.8224 158.299 67.9067 158.637 67.9067C158.975 67.9909 159.228 68.0752 159.566 68.2437C160.157 68.4122 160.748 68.7492 161.339 69.0019C161.93 69.339 162.52 69.676 163.027 70.013C164.125 70.7712 165.053 71.698 165.898 72.709C166.657 73.72 167.417 74.8153 167.839 75.9948C167.924 76.2476 168.093 76.5846 168.177 76.8373C168.261 77.0901 168.346 77.4271 168.43 77.6798C168.599 78.2696 168.684 78.7751 168.768 79.3649C168.852 79.8704 168.852 80.4601 168.937 81.0499C168.937 81.5554 168.937 81.9767 168.852 82.4822C168.768 83.4932 168.599 84.3357 168.43 85.094C168.261 85.8522 167.924 86.442 167.755 86.9475C167.248 87.9585 166.911 88.3798 166.911 88.3798C166.911 88.3798 166.911 88.2113 166.995 87.9585C167.08 87.7058 167.08 87.2845 167.164 86.779C167.248 86.2735 167.248 85.6837 167.333 84.9255C167.333 84.2515 167.333 83.4089 167.248 82.6507C167.164 82.2294 167.164 81.7239 166.995 81.3027C166.826 80.8814 166.826 80.4601 166.657 80.0389C166.489 79.6176 166.404 79.1121 166.151 78.6909C166.066 78.4381 165.982 78.2696 165.813 78.0169C165.729 77.7641 165.56 77.5956 165.475 77.3428C164.969 76.4161 164.378 75.5736 163.702 74.8153C163.365 74.4783 162.943 74.057 162.605 73.72C162.183 73.383 161.761 73.046 161.339 72.709C160.494 72.1193 159.566 71.5295 158.552 71.1925C157.624 70.7712 156.526 70.5185 155.598 70.35C155.091 70.2657 154.584 70.2657 154.162 70.1815C153.571 70.1815 153.149 70.1815 152.727 70.1815C151.798 70.1815 150.87 70.35 150.025 70.5185C148.337 70.8555 146.986 71.4452 146.142 71.9508C145.72 72.2035 145.298 72.372 145.044 72.5405C144.791 72.709 144.707 72.7933 144.707 72.7933C144.707 72.7933 144.538 72.372 144.707 72.1193Z" fill="#2B315E"/>
<path d="M154.416 64.6209C154.753 64.6209 155.007 64.3681 155.007 64.0311C155.007 63.6941 154.753 63.4413 154.416 63.4413C154.078 63.4413 153.825 63.6941 153.825 64.0311C153.825 64.3681 154.078 64.6209 154.416 64.6209Z" fill="#2B315E"/>
<path d="M172.82 82.9877C173.158 82.9877 173.411 82.7349 173.411 82.3979C173.411 82.0609 173.158 81.8082 172.82 81.8082C172.483 81.8082 172.23 82.0609 172.23 82.3979C172.23 82.7349 172.483 82.9877 172.82 82.9877Z" fill="#2B315E"/>
<path d="M154.416 100.175C154.078 100.175 153.825 100.428 153.825 100.765C153.825 101.102 154.078 101.355 154.416 101.355C154.753 101.355 155.007 101.102 155.007 100.765C154.922 100.428 154.669 100.175 154.416 100.175Z" fill="#2B315E"/>
<path d="M136.011 81.8082C135.673 81.8082 135.42 82.0609 135.42 82.3979C135.42 82.7349 135.673 82.9877 136.011 82.9877C136.348 82.9877 136.602 82.7349 136.602 82.3979C136.602 82.0609 136.348 81.8082 136.011 81.8082Z" fill="#2B315E"/>
<path d="M160.832 65.8004C161.085 65.8846 161.423 65.8004 161.592 65.4634C161.676 65.2106 161.592 64.8736 161.254 64.7051C161.001 64.6209 160.663 64.7051 160.494 65.0421C160.41 65.3791 160.579 65.7161 160.832 65.8004Z" fill="#2B315E"/>
<path d="M171.048 88.801C170.963 89.0538 171.048 89.3908 171.385 89.5593C171.639 89.6435 171.976 89.5593 172.145 89.2223C172.229 88.9695 172.145 88.6325 171.807 88.464C171.47 88.3798 171.132 88.5483 171.048 88.801Z" fill="#2B315E"/>
<path d="M147.999 98.9955C147.746 98.9112 147.408 98.9955 147.239 99.3325C147.155 99.5852 147.239 99.9222 147.577 100.091C147.83 100.175 148.168 100.091 148.337 99.7537C148.421 99.4167 148.252 99.0797 147.999 98.9955Z" fill="#2B315E"/>
<path d="M137.784 75.9948C137.868 75.7421 137.784 75.4051 137.446 75.2366C137.193 75.1523 136.855 75.2366 136.686 75.5736C136.602 75.8263 136.686 76.1633 137.024 76.3318C137.361 76.4161 137.615 76.2476 137.784 75.9948Z" fill="#2B315E"/>
<path d="M167.248 69.2547C167.417 69.0019 167.417 68.6649 167.248 68.4964C166.995 68.3279 166.657 68.3279 166.489 68.4964C166.32 68.7492 166.32 69.0862 166.489 69.2547C166.657 69.4232 166.995 69.5074 167.248 69.2547Z" fill="#2B315E"/>
<path d="M167.586 94.4459C167.417 94.6986 167.417 95.0356 167.586 95.2041C167.839 95.3726 168.177 95.3726 168.346 95.2041C168.515 94.9514 168.515 94.6144 168.346 94.4459C168.093 94.1931 167.755 94.1931 167.586 94.4459Z" fill="#2B315E"/>
<path d="M141.583 95.5411C141.414 95.7939 141.414 96.1309 141.583 96.2994C141.836 96.4679 142.174 96.4679 142.343 96.2994C142.511 96.0467 142.511 95.7096 142.343 95.5411C142.174 95.3726 141.752 95.3726 141.583 95.5411Z" fill="#2B315E"/>
<path d="M141.245 70.4342C141.414 70.1815 141.414 69.8444 141.245 69.6759C140.992 69.5074 140.654 69.5074 140.485 69.6759C140.316 69.8444 140.316 70.2657 140.485 70.4342C140.654 70.6027 140.992 70.6027 141.245 70.4342Z" fill="#2B315E"/>
<path d="M171.301 75.2366C171.554 75.0681 171.723 74.7311 171.554 74.4783C171.385 74.2255 171.048 74.057 170.794 74.2255C170.541 74.394 170.372 74.7311 170.541 74.9838C170.71 75.2366 171.048 75.3208 171.301 75.2366Z" fill="#2B315E"/>
<path d="M161.93 98.5742C161.676 98.7427 161.507 99.0797 161.676 99.3325C161.845 99.5852 162.183 99.7537 162.436 99.5852C162.689 99.4167 162.858 99.0797 162.689 98.827C162.52 98.5742 162.183 98.4057 161.93 98.5742Z" fill="#2B315E"/>
<path d="M137.446 89.6436C137.193 89.8121 137.024 90.1491 137.193 90.4018C137.361 90.6546 137.699 90.8231 137.952 90.6546C138.206 90.4861 138.375 90.1491 138.206 89.8963C138.121 89.6436 137.784 89.4751 137.446 89.6436Z" fill="#2B315E"/>
<path d="M146.902 66.3059C147.155 66.1374 147.324 65.8004 147.155 65.5476C146.986 65.2949 146.648 65.1264 146.395 65.2949C146.142 65.4634 145.973 65.8004 146.142 66.0531C146.311 66.3059 146.648 66.3901 146.902 66.3059Z" fill="#2B315E"/>
<path d="M149.097 32.0998C149.434 32.0998 149.688 31.8471 149.688 31.5101C149.688 31.173 149.434 30.9203 149.097 30.9203C148.759 30.9203 148.506 31.173 148.506 31.5101C148.506 31.8471 148.759 32.0998 149.097 32.0998Z" fill="#2B315E"/>
<path d="M155.091 32.6896C155.429 32.6896 155.682 32.4368 155.682 32.0998C155.682 31.7628 155.429 31.51 155.091 31.51C154.753 31.51 154.5 31.7628 154.5 32.0998C154.584 32.4368 154.838 32.6896 155.091 32.6896Z" fill="#2B315E"/>
<path d="M161.17 32.0998C161.507 32.0998 161.761 31.8471 161.761 31.5101C161.761 31.173 161.507 30.9203 161.17 30.9203C160.832 30.9203 160.579 31.173 160.579 31.5101C160.579 31.8471 160.832 32.0998 161.17 32.0998Z" fill="#2B315E"/>
<path d="M166.995 31.0045C167.333 31.0045 167.586 30.7518 167.586 30.4148C167.586 30.0778 167.333 29.825 166.995 29.825C166.657 29.825 166.404 30.0778 166.404 30.4148C166.404 30.7518 166.657 31.0045 166.995 31.0045Z" fill="#2B315E"/>
</svg>
