<svg width="292" height="332" viewBox="0 0 292 332" fill="none" xmlns="http://www.w3.org/2000/svg">
<path d="M176.52 106.24V31.2557C176.52 8.51094 146.621 0.0733702 146.329 0H146.256H146.183C145.89 0.0733702 115.992 8.51094 115.992 31.2557V105.947L1.07794 181.298L0.858643 181.444L10.6541 218.643L115.846 208.591V244.323H120.451V256.942H140.335C141.066 259.07 141.87 261.271 142.82 263.546C143.405 264.94 144.648 265.747 146.11 265.747C147.572 265.747 148.887 264.866 149.399 263.546C150.349 261.271 151.154 259.07 151.885 256.942H171.914V244.323H176.52V208.665L281.346 218.643L291.141 181.444L176.52 106.24ZM176.52 208.004V207.858L210.804 211.306L176.52 208.004ZM175.789 208.665V243.589H171.914H155.32C158.171 225.246 153.274 211.82 149.399 204.556C148.741 203.382 147.572 202.648 146.256 202.648C144.94 202.648 143.697 203.382 143.113 204.556C139.896 210.499 136.022 220.624 136.314 234.124C135.583 225.54 135.729 217.249 135.802 208.078L134.852 179.17C134.852 179.17 127.103 176.529 124.618 162.368C122.206 148.208 132.659 139.77 132.659 139.77L132.147 120.767C136.46 121.501 141.504 122.015 146.987 122.015C153.931 122.015 161.68 121.208 169.648 118.86C169.794 118.86 169.867 118.786 170.014 118.786C170.16 118.786 170.233 118.713 170.379 118.713C170.964 118.566 171.476 118.346 172.06 118.199C172.06 119.593 172.06 120.987 172.06 122.455C172.06 127.297 172.133 131.993 172.133 136.542C172.207 145.713 172.353 154.224 172.499 161.561C172.645 168.898 172.791 174.988 172.938 179.243C173.011 181.371 173.084 183.059 173.084 184.233C173.157 185.406 173.157 185.993 173.157 185.993C173.157 185.993 173.157 185.406 173.23 184.233C173.23 183.059 173.303 181.444 173.376 179.243C173.449 174.988 173.669 168.898 173.815 161.561C173.961 154.224 174.107 145.713 174.18 136.542C174.18 131.993 174.253 127.224 174.253 122.455C174.253 121.868 174.253 121.281 174.253 120.767H174.327C174.619 120.767 174.838 120.547 174.838 120.254C174.838 119.96 174.619 119.74 174.327 119.74H174.253C174.253 119.006 174.253 118.199 174.253 117.466C174.765 117.246 175.35 117.025 175.935 116.879V198.099V207.711V207.931V208.298V208.665H175.789ZM171.183 256.282H168.478V245.35H164.97V256.282H152.25C153.639 252.1 154.589 248.138 155.174 244.396H171.183V256.282ZM143.551 263.326C142.674 261.198 141.87 259.07 141.139 257.016C141.066 256.869 141.066 256.796 140.993 256.649C140.919 256.502 140.919 256.429 140.846 256.282C139.457 252.1 138.507 248.138 137.849 244.396C137.849 244.249 137.776 244.176 137.776 244.029C137.776 243.882 137.703 243.809 137.703 243.662C134.852 225.467 139.677 212.187 143.551 204.923C144.063 203.969 145.013 203.382 146.11 203.382C146.256 203.382 146.475 203.382 146.621 203.455C145.817 203.676 144.575 204.409 143.917 206.464C142.893 209.765 137.118 224.733 140.554 242.855C140.627 243.149 140.627 243.369 140.7 243.589C140.7 243.736 140.773 243.809 140.773 243.956C140.773 244.103 140.846 244.176 140.846 244.323C141.797 249.459 142.601 253.347 143.332 256.209C143.332 256.355 143.405 256.429 143.405 256.575C143.405 256.722 143.478 256.796 143.478 256.942C144.94 262.592 146.256 264.279 148.23 264.059C147.718 264.72 146.914 265.086 146.037 265.086C145.013 265.086 143.99 264.426 143.551 263.326ZM132.44 256.282V245.35H130.466V256.282H129.223V245.35H123.96V256.282H121.255V244.323H137.264C137.922 248.065 138.873 252.1 140.188 256.209H132.44V256.282ZM1.73585 181.811L31.4147 162.368L43.257 181.665L6.56049 193.404L2.24756 183.719L1.73585 181.811ZM144.136 1.4674C138.434 4.54895 122.717 14.4539 120.598 30.3753C122.279 30.8888 124.326 31.4758 126.811 32.0628C128.346 16.4349 142.089 3.88862 145.452 1.02718C145.817 0.880442 146.037 0.807072 146.183 0.807072C148.01 1.32066 175.569 9.68486 175.789 31.0356C174.911 31.4024 174.034 31.6959 173.157 31.9894C173.157 31.7693 173.157 31.4758 173.157 31.2557C173.084 30.0818 173.084 29.4948 173.084 29.4948C173.084 29.4948 173.084 30.0818 173.011 31.2557C173.011 31.4758 173.011 31.7693 173.011 31.9894C145.013 41.6743 119.355 32.0628 116.65 30.9622C116.796 12.5463 137.338 3.81525 144.136 1.4674ZM233.757 176.749L247.793 153.857L250.132 155.398L236.462 177.629L233.757 176.749ZM243.334 150.996L228.494 175.135L181.271 159.947L176.52 111.596V107.12L244.211 151.509L243.334 150.996ZM175.789 105.726V106.167V106.607V115.925C175.204 116.145 174.692 116.365 174.18 116.512C174.18 113.577 174.18 110.642 174.18 107.634C174.18 106.9 174.18 106.24 174.18 105.506C174.18 105.36 174.18 105.213 174.18 105.066C174.18 104.919 174.18 104.773 174.18 104.626C174.18 100.737 174.18 96.8486 174.18 93.0334C174.18 88.1909 174.107 83.4953 174.107 78.9463C174.034 74.3974 174.034 69.9218 173.961 65.7397C173.888 61.5576 173.815 57.5956 173.742 53.9271C173.595 46.5901 173.449 40.5003 173.303 36.2449C173.23 34.8508 173.23 33.7503 173.23 32.7231C174.107 32.4296 174.984 32.1361 175.862 31.7693V105.726H175.789ZM116.65 105.506V31.8427C117.308 32.0628 118.624 32.5764 120.451 33.1633C120.305 37.4188 118.916 77.9925 118.843 92.5198C118.843 95.0144 118.843 99.0497 118.843 104.112C118.843 104.259 118.843 104.406 118.843 104.552C118.843 104.699 118.843 104.846 118.843 104.993C118.843 107.854 118.843 111.009 118.843 114.384C119.647 114.678 120.671 114.971 121.767 115.338C121.913 115.338 121.986 115.411 122.133 115.411C122.279 115.411 122.352 115.485 122.498 115.485C125.057 116.218 128.273 117.025 132.074 117.612L131.563 96.9954C131.563 96.9954 126.372 93.4002 124.106 82.1012C121.84 70.8022 129.15 59.4298 129.15 59.4298C128.565 56.495 127.03 37.4922 126.811 34.7041C132.074 35.878 139.092 36.9786 146.987 36.9786C154.955 36.9786 163.873 35.878 173.084 32.7231C173.084 33.6769 173.011 34.8508 173.011 36.1715C172.938 40.427 172.718 46.5167 172.572 53.8537C172.499 57.5222 172.426 61.4842 172.353 65.6663C172.28 69.8484 172.28 74.324 172.207 78.8729C172.207 83.4219 172.133 88.1909 172.133 92.96C172.133 96.335 172.133 99.7101 172.133 103.085C172.133 103.232 172.133 103.379 172.133 103.525C172.133 103.672 172.133 103.819 172.133 103.966C172.133 105.139 172.133 106.313 172.133 107.561C172.133 110.789 172.133 113.944 172.133 117.172C171.549 117.392 171.037 117.539 170.452 117.686C170.306 117.759 170.233 117.759 170.087 117.759C169.94 117.759 169.867 117.832 169.721 117.832C149.838 123.702 131.636 120.18 122.571 117.612C122.425 117.612 122.352 117.539 122.206 117.539C122.06 117.539 121.986 117.466 121.84 117.466C119.136 116.659 117.381 115.998 116.796 115.778V106.24V105.8V105.506H116.65ZM155.174 226.64C155.32 228.108 155.393 229.649 155.467 231.189C155.393 229.722 155.32 228.181 155.174 226.64ZM115.919 107.707L110.802 159.947L63.579 175.061L48.7396 150.922L47.8624 151.509L115.919 106.827V107.707ZM44.2073 153.857L58.2427 176.749L55.4648 177.629L41.795 155.398L44.2073 153.857ZM115.919 207.784V207.931L81.1963 211.233L115.919 207.784ZM116.65 208.591V208.225V207.858V116.732C117.089 116.879 117.82 117.172 118.77 117.466C118.77 118.273 118.77 119.08 118.77 119.887C118.697 119.74 118.551 119.593 118.331 119.593C118.039 119.593 117.82 119.813 117.82 120.107C117.82 120.4 118.039 120.621 118.331 120.621C118.551 120.621 118.697 120.474 118.77 120.327C118.77 147.547 118.697 184.159 118.843 191.496C118.916 194.724 118.77 200.814 118.624 207.711C118.624 207.858 118.624 207.931 118.624 208.078C118.624 208.225 118.624 208.298 118.624 208.445C118.331 223.045 117.747 240.874 117.673 243.662H116.65V208.591V208.591ZM285.513 193.404L248.816 181.665L260.658 162.368L290.337 181.811L289.826 183.719L285.513 193.404Z" fill="#2B315E"/>
<path d="M154.662 266.407C154.662 266.407 162.923 274.038 164.458 277.266C161.022 275.285 157.367 275.432 157.367 275.432C162.484 279.247 162.777 290.546 162.777 290.546C160.145 288.198 153.347 287.244 153.347 287.244C155.54 297.443 148.522 306.174 148.01 306.834C147.864 305.22 147.572 303.092 146.256 301.698C144.721 300.011 142.528 298.91 140.627 297.589C138.58 296.122 136.314 294.288 135.218 292.233C134.194 290.399 133.536 288.345 133.098 286.364C132.367 283.135 132.221 279.834 132.367 276.606C132.367 276.239 132.44 275.798 132.44 275.432C128.127 277.926 123.522 281.888 123.522 281.888C125.495 272.423 134.048 266.407 134.048 266.407C134.048 266.407 111.752 273.157 118.185 300.964C118.185 300.964 120.013 292.82 125.495 286.877C125.495 286.877 121.402 300.598 130.759 306.541C140.189 312.484 139.896 312.484 141.139 320.848C142.382 329.212 146.548 332 146.548 332C146.548 332 144.794 323.269 151.738 317.106C158.683 310.943 161.168 300.011 158.171 293.261C158.171 293.261 163.873 295.242 165.116 300.377C165.116 300.377 169.356 289.225 163.654 280.127C163.654 280.127 168.625 280.934 171.329 283.502C171.549 283.502 170.014 273.157 154.662 266.407ZM143.186 315.785C143.186 315.932 143.186 316.079 143.186 316.079C143.186 316.079 143.186 316.005 143.113 315.785C143.039 315.638 142.966 315.345 142.82 315.052C142.601 314.391 142.162 313.584 141.431 312.63C141.066 312.19 140.627 311.676 140.189 311.163C139.677 310.649 139.165 310.209 138.58 309.696C137.995 309.182 137.264 308.742 136.607 308.301C136.241 308.081 135.949 307.861 135.51 307.641C135.145 307.421 134.779 307.201 134.414 306.981C133.683 306.541 132.878 306.1 132.147 305.587C131.416 305.073 130.685 304.56 130.101 303.973C129.808 303.679 129.516 303.386 129.297 303.019C129.15 302.872 129.077 302.725 129.004 302.579C128.931 302.432 128.785 302.285 128.712 302.065C128.346 301.478 128.054 300.818 127.834 300.304C127.396 299.204 127.25 298.176 127.25 297.516C127.177 296.856 127.25 296.489 127.25 296.489C127.25 296.489 127.396 296.856 127.615 297.516C127.908 298.176 128.273 299.057 128.931 300.011C129.223 300.524 129.589 301.038 130.028 301.551C130.101 301.698 130.247 301.772 130.32 301.918C130.466 302.065 130.539 302.212 130.685 302.358C130.905 302.579 131.197 302.872 131.49 303.092C132.074 303.606 132.732 304.046 133.39 304.486C134.121 304.926 134.852 305.367 135.656 305.807C136.022 306.027 136.387 306.247 136.826 306.541C137.191 306.761 137.557 307.054 137.922 307.274C138.653 307.788 139.311 308.375 139.896 308.888C141.066 309.989 142.016 311.236 142.528 312.337C143.113 313.437 143.259 314.465 143.259 315.125C143.186 315.345 143.186 315.565 143.186 315.785Z" fill="#2B315E"/>
<path d="M130.978 39.253C131.27 39.253 131.49 39.0329 131.49 38.7395C131.49 38.446 131.27 38.2259 130.978 38.2259C130.685 38.2259 130.466 38.446 130.466 38.7395C130.466 39.0329 130.685 39.253 130.978 39.253Z" fill="#2B315E"/>
<path d="M135.729 39.9134C136.022 39.9134 136.241 39.6933 136.241 39.3998C136.241 39.1063 136.022 38.8862 135.729 38.8862C135.437 38.8862 135.218 39.1063 135.218 39.3998C135.218 39.6933 135.51 39.9134 135.729 39.9134Z" fill="#2B315E"/>
<path d="M140.846 40.3536C141.129 40.3536 141.358 40.1237 141.358 39.84C141.358 39.5564 141.129 39.3264 140.846 39.3264C140.564 39.3264 140.335 39.5564 140.335 39.84C140.335 40.1237 140.564 40.3536 140.846 40.3536Z" fill="#2B315E"/>
<path d="M146.183 40.8672C146.465 40.8672 146.694 40.6372 146.694 40.3536C146.694 40.0699 146.465 39.84 146.183 39.84C145.9 39.84 145.671 40.0699 145.671 40.3536C145.671 40.6372 145.9 40.8672 146.183 40.8672Z" fill="#2B315E"/>
<path d="M161.241 39.3264C161.524 39.3264 161.753 39.0965 161.753 38.8128C161.753 38.5292 161.524 38.2992 161.241 38.2992C160.959 38.2992 160.73 38.5292 160.73 38.8128C160.73 39.0965 160.959 39.3264 161.241 39.3264Z" fill="#2B315E"/>
<path d="M166.066 38.6661C166.349 38.6661 166.578 38.4361 166.578 38.1525C166.578 37.8688 166.349 37.6389 166.066 37.6389C165.784 37.6389 165.554 37.8688 165.554 38.1525C165.554 38.4361 165.784 38.6661 166.066 38.6661Z" fill="#2B315E"/>
<path d="M170.452 37.1987C170.735 37.1987 170.964 36.9687 170.964 36.6851C170.964 36.4015 170.735 36.1715 170.452 36.1715C170.17 36.1715 169.94 36.4015 169.94 36.6851C169.94 36.9687 170.17 37.1987 170.452 37.1987Z" fill="#2B315E"/>
<path d="M174.18 35.6579C174.463 35.6579 174.692 35.428 174.692 35.1443C174.692 34.8607 174.463 34.6307 174.18 34.6307C173.898 34.6307 173.669 34.8607 173.669 35.1443C173.669 35.428 173.898 35.6579 174.18 35.6579Z" fill="#2B315E"/>
<path d="M118.258 35.6579C118.541 35.6579 118.77 35.428 118.77 35.1443C118.77 34.8607 118.541 34.6307 118.258 34.6307C117.976 34.6307 117.747 34.8607 117.747 35.1443C117.747 35.428 117.976 35.6579 118.258 35.6579Z" fill="#2B315E"/>
<path d="M156.49 39.9134C156.773 39.9134 157.002 39.6834 157.002 39.3998C157.002 39.1161 156.773 38.8862 156.49 38.8862C156.207 38.8862 155.978 39.1161 155.978 39.3998C155.978 39.6834 156.207 39.9134 156.49 39.9134Z" fill="#2B315E"/>
<path d="M151.373 40.3536C151.665 40.3536 151.885 40.1335 151.885 39.84C151.885 39.5465 151.665 39.3264 151.373 39.3264C151.08 39.3264 150.861 39.5465 150.861 39.84C150.861 40.1335 151.08 40.3536 151.373 40.3536Z" fill="#2B315E"/>
<path d="M135.729 124.803C136.022 124.803 136.241 124.583 136.241 124.289C136.241 123.996 136.022 123.775 135.729 123.775C135.437 123.775 135.218 123.996 135.218 124.289C135.218 124.583 135.51 124.803 135.729 124.803Z" fill="#2B315E"/>
<path d="M140.846 125.243C141.139 125.243 141.358 125.023 141.358 124.729C141.358 124.436 141.139 124.216 140.846 124.216C140.554 124.216 140.335 124.436 140.335 124.729C140.335 125.023 140.554 125.243 140.846 125.243Z" fill="#2B315E"/>
<path d="M146.183 125.756C146.465 125.756 146.694 125.526 146.694 125.243C146.694 124.959 146.465 124.729 146.183 124.729C145.9 124.729 145.671 124.959 145.671 125.243C145.671 125.526 145.9 125.756 146.183 125.756Z" fill="#2B315E"/>
<path d="M161.241 124.216C161.524 124.216 161.753 123.986 161.753 123.702C161.753 123.418 161.524 123.188 161.241 123.188C160.959 123.188 160.73 123.418 160.73 123.702C160.73 123.986 160.959 124.216 161.241 124.216Z" fill="#2B315E"/>
<path d="M166.066 123.555C166.349 123.555 166.578 123.325 166.578 123.042C166.578 122.758 166.349 122.528 166.066 122.528C165.784 122.528 165.554 122.758 165.554 123.042C165.554 123.325 165.784 123.555 166.066 123.555Z" fill="#2B315E"/>
<path d="M170.452 121.061C170.379 121.061 170.379 121.061 170.306 121.061C170.087 121.134 169.94 121.281 169.94 121.501C169.94 121.721 170.087 121.941 170.306 121.941C170.379 121.941 170.379 121.941 170.452 121.941C170.745 121.941 170.964 121.721 170.964 121.428C170.964 121.281 170.745 121.061 170.452 121.061Z" fill="#2B315E"/>
<path d="M156.49 124.803C156.773 124.803 157.002 124.573 157.002 124.289C157.002 124.005 156.773 123.775 156.49 123.775C156.207 123.775 155.978 124.005 155.978 124.289C155.978 124.573 156.207 124.803 156.49 124.803Z" fill="#2B315E"/>
<path d="M151.373 125.243C151.665 125.243 151.885 125.023 151.885 124.729C151.885 124.436 151.665 124.216 151.373 124.216C151.08 124.216 150.861 124.436 150.861 124.729C150.861 125.023 151.08 125.243 151.373 125.243Z" fill="#2B315E"/>
<path d="M166.505 77.7724C166.505 66.5468 157.367 57.3755 146.183 57.3755C134.998 57.3755 125.861 66.5468 125.861 77.7724C125.861 88.998 134.998 98.1693 146.183 98.1693C157.367 98.1693 166.505 88.998 166.505 77.7724ZM126.665 77.7724C126.665 66.9136 135.437 58.1092 146.256 58.1092C157.075 58.1092 165.847 66.9136 165.847 77.7724C165.847 88.6312 157.075 97.4356 146.256 97.4356C135.437 97.4356 126.665 88.6312 126.665 77.7724Z" fill="#2B315E"/>
<path d="M161.753 77.7724C161.753 69.1147 154.809 62.1445 146.183 62.1445C137.557 62.1445 130.612 69.1147 130.612 77.7724C130.612 86.4301 137.557 93.4002 146.183 93.4002C154.809 93.4736 161.753 86.4301 161.753 77.7724ZM144.355 65.6663C143.478 65.6663 142.601 65.813 141.797 65.9598C140.188 66.3266 138.873 66.9136 137.995 67.3538C137.557 67.5739 137.191 67.794 136.972 67.9408C136.753 68.0875 136.607 68.1609 136.607 68.1609C136.607 68.1609 136.68 68.0141 136.826 67.794C136.972 67.5739 137.264 67.2804 137.63 66.9136C137.995 66.5467 138.434 66.1065 139.092 65.6663C139.677 65.2261 140.408 64.7859 141.212 64.419C142.016 64.0522 143.039 63.6853 144.063 63.5386C144.575 63.3918 145.232 63.3918 145.671 63.3185C146.256 63.3185 146.841 63.3185 147.425 63.3185C148.01 63.3918 148.595 63.3918 149.18 63.5386C149.472 63.6119 149.765 63.6853 150.057 63.7587C150.349 63.832 150.642 63.9788 150.934 64.0522C151.519 64.1989 152.104 64.4924 152.689 64.7859C153.274 65.0793 153.785 65.3728 154.297 65.813C155.32 66.5467 156.271 67.4272 157.075 68.381C157.879 69.3348 158.537 70.4354 158.975 71.5359C159.122 71.8294 159.195 72.0495 159.341 72.343C159.414 72.6365 159.487 72.9299 159.56 73.1501C159.706 73.6636 159.779 74.2506 159.926 74.7642C159.999 75.2778 159.999 75.8648 160.072 76.3783C160.072 76.8919 159.999 77.3322 159.999 77.7724C159.926 78.7262 159.779 79.5333 159.56 80.267C159.341 81.0007 159.122 81.5876 158.902 82.0279C158.464 82.9817 158.098 83.4219 158.098 83.4219C158.098 83.4219 158.098 83.2751 158.171 82.9817C158.244 82.6882 158.317 82.3213 158.391 81.8077C158.464 81.2941 158.537 80.7072 158.537 80.0469C158.537 79.3865 158.537 78.5794 158.391 77.8457C158.317 77.4055 158.244 76.9653 158.171 76.5251C158.025 76.0849 157.952 75.718 157.806 75.2778C157.66 74.8376 157.513 74.3974 157.294 73.9571C157.221 73.737 157.075 73.5169 157.002 73.2968C156.929 73.0767 156.782 72.8566 156.636 72.6365C156.198 71.756 155.54 70.949 154.882 70.2152C154.516 69.8484 154.224 69.4815 153.785 69.1147C153.42 68.7478 152.981 68.4544 152.616 68.1609C151.812 67.5739 150.861 67.0603 149.911 66.6935C148.961 66.2533 148.01 66.0332 147.06 65.8864C146.621 65.813 146.037 65.813 145.671 65.7397C145.232 65.6663 144.867 65.6663 144.355 65.6663Z" fill="#2B315E"/>
<path d="M146.183 60.5304C146.465 60.5304 146.694 60.3004 146.694 60.0168C146.694 59.7331 146.465 59.5032 146.183 59.5032C145.9 59.5032 145.671 59.7331 145.671 60.0168C145.671 60.3004 145.9 60.5304 146.183 60.5304Z" fill="#2B315E"/>
<path d="M163.946 78.286C164.229 78.286 164.458 78.056 164.458 77.7724C164.458 77.4887 164.229 77.2588 163.946 77.2588C163.664 77.2588 163.434 77.4887 163.434 77.7724C163.434 78.056 163.664 78.286 163.946 78.286Z" fill="#2B315E"/>
<path d="M146.183 96.1149C146.465 96.1149 146.694 95.885 146.694 95.6013C146.694 95.3177 146.465 95.0877 146.183 95.0877C145.9 95.0877 145.671 95.3177 145.671 95.6013C145.671 95.885 145.9 96.1149 146.183 96.1149Z" fill="#2B315E"/>
<path d="M128.492 77.2588C128.2 77.2588 127.981 77.4789 127.981 77.7724C127.981 78.0659 128.2 78.286 128.492 78.286C128.785 78.286 129.004 78.0659 129.004 77.7724C129.004 77.4789 128.785 77.2588 128.492 77.2588Z" fill="#2B315E"/>
<path d="M152.396 61.7043C152.689 61.7777 152.981 61.7043 153.127 61.4108C153.2 61.1173 153.127 60.8239 152.835 60.6771C152.543 60.6038 152.25 60.6771 152.104 60.9706C151.958 61.3375 152.104 61.6309 152.396 61.7043Z" fill="#2B315E"/>
<path d="M162.192 84.0088C162.119 84.3023 162.192 84.5958 162.484 84.7425C162.777 84.8159 163.069 84.7425 163.215 84.4491C163.288 84.1556 163.215 83.8621 162.923 83.7154C162.63 83.642 162.338 83.7154 162.192 84.0088Z" fill="#2B315E"/>
<path d="M140.042 93.9138C139.75 93.8404 139.457 93.9138 139.311 94.2073C139.238 94.5008 139.311 94.7942 139.604 94.941C139.896 95.0877 140.188 94.941 140.335 94.6475C140.408 94.2806 140.262 93.9872 140.042 93.9138Z" fill="#2B315E"/>
<path d="M130.174 71.6093C130.247 71.3158 130.174 71.0223 129.881 70.8756C129.589 70.8022 129.296 70.8756 129.15 71.1691C129.077 71.4625 129.15 71.756 129.443 71.9028C129.735 71.9761 130.101 71.9028 130.174 71.6093Z" fill="#2B315E"/>
<path d="M158.537 65.0793C158.756 64.8592 158.756 64.4924 158.537 64.2723C158.317 64.0522 157.952 64.0522 157.733 64.2723C157.513 64.4924 157.513 64.8592 157.733 65.0793C158.025 65.2994 158.391 65.2994 158.537 65.0793Z" fill="#2B315E"/>
<path d="M158.902 89.4382C158.683 89.6583 158.683 90.0252 158.902 90.2453C159.122 90.4654 159.487 90.4654 159.706 90.2453C159.926 90.0252 159.926 89.6583 159.706 89.4382C159.414 89.2181 159.122 89.2181 158.902 89.4382Z" fill="#2B315E"/>
<path d="M133.829 90.5388C133.609 90.7589 133.609 91.1257 133.829 91.3458C134.048 91.5659 134.414 91.5659 134.633 91.3458C134.852 91.1257 134.852 90.7589 134.633 90.5388C134.414 90.3187 134.048 90.3187 133.829 90.5388Z" fill="#2B315E"/>
<path d="M133.536 66.1799C133.756 65.9598 133.756 65.5929 133.536 65.3728C133.317 65.1527 132.952 65.1527 132.732 65.3728C132.513 65.5929 132.513 65.9598 132.732 66.1799C132.952 66.4 133.317 66.4 133.536 66.1799Z" fill="#2B315E"/>
<path d="M162.484 70.8022C162.777 70.6555 162.85 70.362 162.777 70.0685C162.63 69.775 162.338 69.7017 162.046 69.775C161.753 69.9218 161.68 70.2152 161.753 70.5087C161.899 70.8022 162.265 70.9489 162.484 70.8022Z" fill="#2B315E"/>
<path d="M153.42 93.4736C153.127 93.6203 153.054 93.9138 153.127 94.2073C153.274 94.5008 153.566 94.5741 153.858 94.5008C154.151 94.354 154.224 94.0605 154.151 93.7671C154.005 93.4736 153.712 93.3268 153.42 93.4736Z" fill="#2B315E"/>
<path d="M129.881 84.8159C129.589 84.9627 129.516 85.2561 129.589 85.5496C129.735 85.8431 130.028 85.9165 130.32 85.8431C130.612 85.6964 130.685 85.4029 130.612 85.1094C130.466 84.8159 130.174 84.6692 129.881 84.8159Z" fill="#2B315E"/>
<path d="M139.019 62.1445C139.311 61.9978 139.384 61.7043 139.311 61.4108C139.165 61.1173 138.873 61.044 138.58 61.1173C138.288 61.2641 138.215 61.5576 138.288 61.851C138.361 62.1445 138.726 62.2913 139.019 62.1445Z" fill="#2B315E"/>
<path d="M146.183 137.716C134.998 137.716 125.861 146.887 125.861 158.113C125.861 169.338 134.998 178.51 146.183 178.51C157.367 178.51 166.505 169.338 166.505 158.113C166.505 146.887 157.367 137.716 146.183 137.716ZM146.183 177.703C135.364 177.703 126.592 168.898 126.592 158.039C126.592 147.181 135.364 138.376 146.183 138.376C157.002 138.376 165.774 147.181 165.774 158.039C165.774 168.898 157.002 177.703 146.183 177.703Z" fill="#2B315E"/>
<path d="M146.183 142.485C137.557 142.485 130.612 149.455 130.612 158.113C130.612 166.77 137.557 173.741 146.183 173.741C154.809 173.741 161.753 166.77 161.753 158.113C161.753 149.455 154.809 142.485 146.183 142.485ZM159.122 151.803C159.268 152.096 159.341 152.316 159.487 152.61C159.56 152.903 159.633 153.197 159.706 153.417C159.853 153.931 159.926 154.518 160.072 155.031C160.145 155.545 160.145 156.132 160.218 156.645C160.218 157.159 160.145 157.599 160.145 158.039C160.072 158.993 159.926 159.8 159.706 160.534C159.487 161.268 159.268 161.855 159.048 162.295C158.61 163.249 158.244 163.689 158.244 163.689C158.244 163.689 158.244 163.542 158.317 163.249C158.391 162.955 158.464 162.588 158.537 162.075C158.61 161.561 158.683 160.974 158.683 160.314C158.683 159.653 158.683 158.846 158.537 158.113C158.464 157.672 158.391 157.232 158.317 156.792C158.171 156.352 158.098 155.985 157.952 155.545C157.806 155.105 157.66 154.664 157.44 154.224C157.367 154.004 157.221 153.784 157.148 153.564C157.075 153.344 156.929 153.124 156.782 152.903C156.344 152.023 155.686 151.216 155.028 150.482C154.662 150.115 154.37 149.749 153.931 149.382C153.566 149.015 153.127 148.721 152.762 148.428C151.958 147.841 151.007 147.327 150.057 146.96C149.107 146.52 148.156 146.3 147.206 146.153C146.768 146.08 146.183 146.08 145.817 146.007C145.232 146.007 144.867 146.007 144.428 146.007C143.551 146.007 142.674 146.153 141.87 146.3C140.262 146.667 138.946 147.254 138.069 147.694C137.63 147.914 137.264 148.134 137.045 148.281C136.826 148.428 136.68 148.501 136.68 148.501C136.68 148.501 136.753 148.354 136.899 148.134C137.045 147.914 137.338 147.621 137.703 147.254C138.069 146.887 138.507 146.447 139.165 146.007C139.75 145.566 140.481 145.126 141.285 144.759C142.089 144.392 143.113 144.026 144.136 143.879C144.648 143.732 145.306 143.732 145.744 143.659C146.329 143.659 146.914 143.659 147.499 143.659C148.083 143.732 148.668 143.732 149.253 143.879C149.545 143.952 149.838 144.026 150.13 144.099C150.423 144.172 150.715 144.319 151.007 144.392C151.592 144.539 152.177 144.833 152.762 145.126C153.347 145.42 153.858 145.713 154.37 146.153C155.393 146.887 156.344 147.768 157.148 148.721C158.025 149.675 158.683 150.702 159.122 151.803Z" fill="#2B315E"/>
<path d="M146.183 140.797C146.465 140.797 146.694 140.567 146.694 140.284C146.694 140 146.465 139.77 146.183 139.77C145.9 139.77 145.671 140 145.671 140.284C145.671 140.567 145.9 140.797 146.183 140.797Z" fill="#2B315E"/>
<path d="M163.946 158.626C164.229 158.626 164.458 158.396 164.458 158.113C164.458 157.829 164.229 157.599 163.946 157.599C163.664 157.599 163.434 157.829 163.434 158.113C163.434 158.396 163.664 158.626 163.946 158.626Z" fill="#2B315E"/>
<path d="M146.183 176.382C146.465 176.382 146.694 176.152 146.694 175.868C146.694 175.585 146.465 175.355 146.183 175.355C145.9 175.355 145.671 175.585 145.671 175.868C145.671 176.152 145.9 176.382 146.183 176.382Z" fill="#2B315E"/>
<path d="M128.492 157.526C128.2 157.526 127.981 157.746 127.981 158.039C127.981 158.333 128.2 158.553 128.492 158.553C128.785 158.553 129.004 158.333 129.004 158.039C129.004 157.819 128.785 157.526 128.492 157.526Z" fill="#2B315E"/>
<path d="M152.396 142.045C152.689 142.118 152.981 142.045 153.127 141.751C153.2 141.458 153.127 141.164 152.835 141.017C152.543 140.944 152.25 141.017 152.104 141.311C151.958 141.604 152.104 141.898 152.396 142.045Z" fill="#2B315E"/>
<path d="M162.192 164.349C162.119 164.643 162.192 164.936 162.484 165.083C162.777 165.156 163.069 165.083 163.215 164.789C163.288 164.496 163.215 164.202 162.923 164.056C162.63 163.909 162.338 164.056 162.192 164.349Z" fill="#2B315E"/>
<path d="M140.042 174.181C139.75 174.107 139.457 174.181 139.311 174.474C139.238 174.768 139.311 175.061 139.604 175.208C139.896 175.281 140.188 175.208 140.335 174.914C140.408 174.621 140.262 174.254 140.042 174.181Z" fill="#2B315E"/>
<path d="M130.174 151.876C130.247 151.583 130.174 151.289 129.881 151.143C129.589 151.069 129.296 151.143 129.15 151.436C129.077 151.73 129.15 152.023 129.443 152.17C129.735 152.316 130.101 152.17 130.174 151.876Z" fill="#2B315E"/>
<path d="M158.537 145.346C158.756 145.126 158.756 144.759 158.537 144.539C158.317 144.319 157.952 144.319 157.733 144.539C157.513 144.759 157.513 145.126 157.733 145.346C158.025 145.566 158.391 145.566 158.537 145.346Z" fill="#2B315E"/>
<path d="M158.902 169.705C158.683 169.925 158.683 170.292 158.902 170.512C159.122 170.732 159.487 170.732 159.706 170.512C159.926 170.292 159.926 169.925 159.706 169.705C159.414 169.485 159.122 169.485 158.902 169.705Z" fill="#2B315E"/>
<path d="M133.829 170.879C133.609 171.099 133.609 171.466 133.829 171.686C134.048 171.906 134.414 171.906 134.633 171.686C134.852 171.466 134.852 171.099 134.633 170.879C134.414 170.586 134.048 170.659 133.829 170.879Z" fill="#2B315E"/>
<path d="M133.536 146.447C133.756 146.227 133.756 145.86 133.536 145.64C133.317 145.42 132.952 145.42 132.732 145.64C132.513 145.86 132.513 146.227 132.732 146.447C132.952 146.74 133.317 146.667 133.536 146.447Z" fill="#2B315E"/>
<path d="M162.484 151.143C162.777 150.996 162.85 150.702 162.777 150.409C162.63 150.115 162.338 150.042 162.046 150.115C161.753 150.262 161.68 150.556 161.753 150.849C161.899 151.143 162.265 151.216 162.484 151.143Z" fill="#2B315E"/>
<path d="M153.42 173.741C153.127 173.887 153.054 174.181 153.127 174.474C153.274 174.768 153.566 174.841 153.858 174.768C154.151 174.621 154.224 174.328 154.151 174.034C154.078 173.741 153.712 173.594 153.42 173.741Z" fill="#2B315E"/>
<path d="M129.881 165.083C129.589 165.23 129.516 165.523 129.589 165.817C129.735 166.11 130.028 166.183 130.32 166.11C130.612 165.963 130.685 165.67 130.612 165.376C130.466 165.083 130.174 164.936 129.881 165.083Z" fill="#2B315E"/>
<path d="M139.019 142.485C139.311 142.338 139.384 142.045 139.311 141.751C139.165 141.458 138.873 141.384 138.58 141.458C138.288 141.604 138.215 141.898 138.288 142.191C138.361 142.485 138.726 142.558 139.019 142.485Z" fill="#2B315E"/>
</svg>
